<svg width="143" height="242" viewBox="0 0 143 242" fill="none" xmlns="http://www.w3.org/2000/svg">
<path d="M0.181885 81.6147H40.0731V79.7593L36.9421 79.2954C31.8397 78.5996 28.9407 77.2081 28.9407 71.6419V0.324707H22.2148C15.7209 5.54304 10.1547 9.7177 0.181885 12.6168V14.1243H5.28425C10.0387 14.1243 11.1984 15.6318 11.1984 19.4586V71.6419C11.1984 77.2081 8.8791 78.5996 3.54481 79.2954L0.181885 79.7593V81.6147Z" fill="#C91459"/>
<path d="M73.6491 208.872H62.4394V151.019H49.9411L12.0599 209.516V221.499H43.4988V241.213H62.4394V221.499H70.2991L73.6491 208.872ZM17.3427 208.872L43.4988 168.543V208.872H17.3427Z" fill="white"/>
<path d="M83.8993 73.6968C87.507 73.6968 90.3932 70.7075 90.3932 67.409C90.3932 64.0075 87.404 61.0182 83.8993 61.0182C80.2916 61.0182 77.3023 64.0075 77.3023 67.409C77.3023 70.7075 80.2916 73.6968 83.8993 73.6968ZM73.6946 130.493C78.3331 130.493 82.6624 127.71 88.1255 118.845L86.5793 117.814C83.2808 122.556 81.2193 124.617 79.1577 124.617C77.3023 124.617 77.6115 122.247 78.5392 117.917L87.6101 79.3661H86.9916L69.1591 83.6954L68.8499 84.9323C74.1069 85.6539 74.4161 87.5093 73.3853 91.9416L67.613 116.783C65.5514 125.133 67.613 130.493 73.6946 130.493Z" fill="white"/>
<path d="M140.922 117.814C137.624 122.556 135.459 124.617 133.501 124.617C131.542 124.617 131.748 122.247 132.882 117.917L139.067 93.797C141.232 85.3446 139.685 79.263 132.264 79.263C125.255 79.263 116.39 86.5816 109.484 100.806H109.277L114.225 79.3661H113.607L95.7742 83.6954L95.465 84.9323C100.722 85.6539 101.031 87.5093 100 91.9416L91.3419 129.462H102.68L104.124 123.174C110.411 95.5494 122.162 85.7569 126.388 85.7569C129.481 85.7569 129.275 88.2308 128.038 92.9724L121.956 116.783C119.791 125.236 121.853 130.493 128.038 130.493C132.573 130.493 136.902 127.71 142.366 118.845L140.922 117.814Z" fill="white"/>
</svg>
